<?xml version="1.0" standalone="no"?>
<!DOCTYPE svg PUBLIC "-//W3C//DTD SVG 20010904//EN"
 "http://www.w3.org/TR/2001/REC-SVG-20010904/DTD/svg10.dtd">
<svg version="1.0" xmlns="http://www.w3.org/2000/svg"
 width="513.000000pt" height="513.000000pt" viewBox="0 0 513.000000 513.000000"
 preserveAspectRatio="xMidYMid meet">

<g transform="translate(0.000000,513.000000) scale(0.100000,-0.100000)"
fill="#000000" stroke="none">
<path d="M2456 4336 c-21 -8 -55 -28 -75 -44 -24 -20 -66 -37 -121 -51 -214
-55 -403 -132 -530 -216 -79 -53 -133 -110 -164 -175 -21 -44 -21 -53 -21
-705 0 -742 0 -738 74 -891 123 -253 353 -407 679 -454 l82 -12 0 -64 0 -64
205 0 205 0 0 -337 c0 -319 -1 -339 -21 -379 -41 -87 -142 -151 -280 -180 -60
-12 -166 -14 -663 -12 -524 3 -598 6 -649 21 -175 51 -291 154 -348 306 -20
54 -21 74 -21 530 -1 398 1 475 13 481 46 26 103 76 130 113 59 80 73 122 73
232 1 89 -2 107 -26 158 -33 70 -124 164 -189 195 -190 91 -425 7 -520 -185
-21 -42 -24 -62 -24 -163 0 -105 2 -120 28 -171 27 -56 99 -137 149 -166 l26
-16 5 -521 c4 -496 5 -525 26 -605 70 -273 276 -452 585 -512 96 -19 139 -20
811 -17 695 3 712 4 788 25 215 61 356 180 425 359 l27 69 3 388 3 387 214 0
214 0 3 63 3 62 79 7 c156 14 340 76 456 153 167 111 276 269 328 474 14 58
16 149 16 721 l1 655 -28 57 c-78 159 -354 310 -727 398 -30 7 -77 28 -103 46
-107 73 -210 69 -306 -12 -73 -61 -99 -190 -56 -278 51 -105 166 -161 273
-134 32 8 56 6 109 -7 173 -44 354 -126 413 -190 l25 -27 3 -514 c3 -536 -1
-612 -38 -698 -24 -56 -104 -144 -170 -186 -51 -33 -181 -83 -242 -94 l-38 -7
0 46 0 45 -595 0 -595 0 0 -40 c0 -22 -4 -40 -8 -40 -20 0 -157 51 -202 76
-68 37 -151 122 -183 188 -43 87 -48 161 -47 711 1 582 -8 526 98 593 134 86
367 160 446 142 80 -18 163 9 223 72 112 117 75 312 -72 382 -50 24 -131 29
-179 12z m1349 -230 c279 -84 493 -212 523 -313 15 -51 20 -485 12 -958 -6
-358 -8 -384 -29 -445 -37 -107 -89 -190 -166 -266 -126 -123 -276 -185 -533
-219 l-43 -5 3 66 3 67 70 17 c218 52 392 172 468 323 54 105 57 142 57 753
l0 561 -22 29 c-64 82 -206 167 -364 219 -65 22 -121 41 -123 42 -2 1 4 20 13
43 9 22 16 59 16 81 0 34 3 39 18 35 9 -3 53 -17 97 -30z m-1511 -23 c3 -27
13 -61 21 -77 9 -16 14 -30 13 -31 -2 -1 -48 -17 -103 -35 -124 -41 -212 -84
-292 -145 -114 -85 -103 -14 -103 -674 0 -621 2 -647 54 -749 71 -139 224
-252 416 -308 l75 -22 3 -66 c3 -65 3 -66 -23 -66 -14 0 -60 7 -102 16 -285
59 -475 208 -560 442 -35 94 -42 236 -42 822 0 565 3 604 45 657 64 81 256
183 474 254 117 38 116 38 124 -18z m-1614 -1603 c20 -20 26 -65 12 -86 -10
-15 -47 -34 -67 -34 -23 0 -65 46 -65 71 0 57 79 90 120 49z m10 -886 l0 -455
26 -77 c74 -221 234 -357 480 -408 59 -12 175 -14 690 -12 l619 3 81 27 c127
43 220 111 272 199 46 76 52 132 52 471 l0 318 55 0 c30 0 55 -3 55 -7 0 -5 0
-171 1 -370 0 -339 -1 -365 -21 -420 -55 -158 -173 -252 -375 -299 -74 -18
-131 -19 -785 -19 l-705 0 -90 28 c-49 15 -119 42 -155 59 -90 45 -197 152
-238 239 -60 126 -62 145 -62 687 l0 492 50 0 50 0 0 -456z"/>
<path d="M4200 3095 l0 -365 55 0 55 0 0 365 0 365 -55 0 -55 0 0 -365z"/>
<path d="M4184 2472 c-22 -93 -61 -181 -95 -218 l-20 -22 30 -47 29 -47 40 40
c22 22 54 68 71 103 32 66 80 253 68 265 -4 4 -28 9 -54 11 l-48 5 -21 -90z"/>
</g>
</svg>
